<?xml version="1.0" encoding="UTF-8"?>
<svg xmlns="http://www.w3.org/2000/svg" xmlns:xlink="http://www.w3.org/1999/xlink" width="823" height="936" viewBox="246 190 823 936" version="1.2">
<g id="surface1">
<path style=" stroke:none;fill-rule:nonzero;fill:#1f1f3a;fill-opacity:1;" d="M 872.933594 324.496094 C 868.644531 320.230469 868.625 313.289062 872.890625 309 C 877.15625 304.71875 884.089844 304.691406 888.378906 308.960938 C 908.957031 329.429688 926.890625 352.726562 941.523438 378.34375 C 955.796875 403.335938 966.921875 430.484375 974.289062 459.3125 C 975.777344 465.191406 972.226562 471.171875 966.351562 472.660156 C 960.472656 474.152344 954.496094 470.597656 953.003906 464.722656 C 946.105469 437.71875 935.734375 412.386719 922.46875 389.15625 C 908.84375 365.296875 892.125 343.585938 872.933594 324.496094 Z M 658.363281 213.96875 C 678.605469 213.96875 698.628906 215.871094 718.222656 219.53125 C 738.132812 223.238281 757.464844 228.769531 776.011719 235.949219 C 781.648438 238.128906 784.453125 244.46875 782.273438 250.109375 C 780.09375 255.75 773.753906 258.550781 768.117188 256.371094 C 750.8125 249.671875 732.800781 244.519531 714.273438 241.070312 C 696.210938 237.699219 677.515625 235.949219 658.363281 235.949219 C 588.882812 235.949219 523.820312 259.488281 471.84375 299.851562 C 419.855469 340.21875 380.929688 397.417969 363.726562 464.722656 C 362.234375 470.597656 356.257812 474.152344 350.382812 472.660156 C 344.503906 471.171875 340.949219 465.191406 342.441406 459.3125 C 360.890625 387.136719 402.625 325.800781 458.371094 282.519531 C 514.121094 239.21875 583.882812 213.96875 658.363281 213.96875 Z M 774.714844 499.148438 C 776.683594 504.878906 773.628906 511.128906 767.894531 513.09375 C 762.160156 515.0625 755.914062 512.007812 753.945312 506.273438 C 752.804688 502.949219 751.539062 499.789062 750.167969 496.816406 C 748.742188 493.714844 747.15625 490.699219 745.441406 487.789062 C 742.363281 482.578125 744.089844 475.851562 749.300781 472.773438 C 754.511719 469.695312 761.238281 471.421875 764.316406 476.636719 C 766.402344 480.171875 768.332031 483.847656 770.078125 487.632812 C 771.835938 491.449219 773.390625 495.300781 774.714844 499.148438 Z M 709.414062 427.253906 C 714.910156 429.761719 717.332031 436.257812 714.820312 441.753906 C 712.308594 447.25 705.8125 449.671875 700.316406 447.160156 C 693.894531 444.230469 687.03125 441.945312 679.851562 440.386719 C 672.925781 438.882812 665.726562 438.097656 658.363281 438.097656 C 636.753906 438.097656 616.355469 444.9375 599.632812 456.875 C 582.910156 468.800781 569.808594 485.859375 562.78125 506.273438 C 560.816406 512.007812 554.570312 515.0625 548.839844 513.09375 C 543.105469 511.128906 540.050781 504.878906 542.015625 499.148438 C 550.554688 474.339844 566.523438 453.578125 586.929688 439.023438 C 607.328125 424.464844 632.136719 416.121094 658.363281 416.121094 C 667.242188 416.121094 675.992188 417.089844 684.484375 418.933594 C 693.042969 420.789062 701.402344 423.597656 709.414062 427.253906 Z M 823.957031 490.667969 C 824.765625 493.449219 823.160156 496.371094 820.371094 497.175781 C 817.589844 497.984375 814.671875 496.378906 813.863281 493.589844 C 803.753906 459.082031 782.855469 429.960938 755.507812 409.476562 C 728.171875 389.003906 694.355469 377.148438 658.363281 377.148438 C 622.378906 377.148438 588.558594 389.003906 561.222656 409.476562 C 533.871094 429.960938 512.980469 459.082031 502.867188 493.589844 C 502.0625 496.378906 499.144531 497.984375 496.359375 497.175781 C 493.574219 496.371094 491.964844 493.449219 492.773438 490.667969 C 503.546875 453.902344 525.796875 422.886719 554.921875 401.070312 C 584.066406 379.242188 620.082031 366.601562 658.363281 366.601562 C 696.648438 366.601562 732.664062 379.242188 761.808594 401.070312 C 790.933594 422.886719 813.1875 453.902344 823.957031 490.667969 Z M 858.042969 482.777344 C 858.828125 485.574219 857.195312 488.484375 854.398438 489.261719 C 851.597656 490.046875 848.691406 488.414062 847.910156 485.617188 C 835.933594 443.210938 810.582031 407.355469 777.214844 382.109375 C 743.851562 356.863281 702.453125 342.21875 658.363281 342.21875 C 640.464844 342.21875 623.058594 344.609375 606.503906 349.128906 C 589.511719 353.761719 573.316406 360.65625 558.324219 369.5 C 555.824219 370.976562 552.59375 370.148438 551.113281 367.648438 C 549.636719 365.144531 550.46875 361.914062 552.96875 360.4375 C 568.714844 351.148438 585.78125 343.894531 603.742188 338.992188 C 621.289062 334.203125 639.628906 331.667969 658.363281 331.667969 C 704.792969 331.667969 748.402344 347.101562 783.558594 373.703125 C 818.714844 400.304688 845.421875 438.082031 858.042969 482.777344 Z M 892.859375 476.375 C 893.609375 479.183594 891.9375 482.074219 889.132812 482.820312 C 886.324219 483.570312 883.433594 481.902344 882.6875 479.097656 C 869.089844 428.324219 839.292969 385.28125 799.761719 354.945312 C 760.226562 324.609375 710.9375 306.949219 658.363281 306.949219 C 635.429688 306.949219 613.132812 310.308594 592.011719 316.609375 C 570.324219 323.074219 549.847656 332.648438 531.175781 344.875 C 528.746094 346.464844 525.476562 345.78125 523.886719 343.351562 C 522.296875 340.917969 522.980469 337.652344 525.410156 336.0625 C 544.925781 323.28125 566.332031 313.269531 589.003906 306.511719 C 611.113281 299.921875 634.425781 296.410156 658.363281 296.410156 C 713.289062 296.410156 764.808594 314.859375 806.144531 346.585938 C 847.488281 378.3125 878.648438 423.308594 892.859375 476.375 Z M 926.636719 471.398438 C 927.339844 474.21875 925.628906 477.078125 922.808594 477.785156 C 919.988281 478.488281 917.128906 476.773438 916.425781 473.953125 C 901.496094 414.863281 867.449219 364.621094 821.90625 329.15625 C 776.382812 293.699219 719.328125 273.011719 658.363281 273.011719 C 631.222656 273.011719 604.890625 277.101562 580.03125 284.75 C 554.476562 292.621094 530.429688 304.269531 508.628906 319.105469 C 506.230469 320.742188 502.949219 320.128906 501.316406 317.730469 C 499.679688 315.328125 500.296875 312.050781 502.691406 310.421875 C 525.351562 294.988281 550.359375 282.890625 576.941406 274.699219 C 602.855469 266.730469 630.230469 262.460938 658.363281 262.460938 C 721.703125 262.460938 781.011719 283.988281 828.375 320.875 C 875.726562 357.75 911.121094 409.980469 926.636719 471.398438 Z M 468.820312 485.617188 C 468.039062 488.414062 465.132812 490.046875 462.335938 489.261719 C 459.535156 488.484375 457.90625 485.574219 458.6875 482.777344 C 461.84375 471.585938 465.898438 460.824219 470.734375 450.566406 C 475.660156 440.132812 481.421875 430.195312 487.914062 420.839844 C 489.566406 418.453125 492.839844 417.855469 495.226562 419.5 C 497.613281 421.148438 498.214844 424.425781 496.566406 426.8125 C 490.410156 435.675781 484.941406 445.117188 480.25 455.054688 C 475.664062 464.785156 471.816406 474.996094 468.820312 485.617188 Z M 434.046875 479.097656 C 433.296875 481.902344 430.40625 483.570312 427.597656 482.820312 C 424.789062 482.074219 423.121094 479.183594 423.871094 476.375 C 428.371094 459.570312 434.601562 443.535156 442.332031 428.441406 C 450.242188 412.996094 459.6875 398.617188 470.429688 385.492188 C 472.269531 383.238281 475.589844 382.910156 477.839844 384.746094 C 480.09375 386.589844 480.425781 389.910156 478.582031 392.160156 C 468.246094 404.800781 459.195312 418.546875 451.683594 433.222656 C 444.324219 447.582031 438.375 462.933594 434.046875 479.097656 Z M 400.308594 473.953125 C 399.601562 476.773438 396.742188 478.488281 393.921875 477.785156 C 391.105469 477.078125 389.390625 474.21875 390.09375 471.398438 C 397.144531 443.480469 408.324219 417.433594 422.875 393.859375 C 437.808594 369.660156 456.292969 348.082031 477.503906 329.765625 C 479.699219 327.867188 483.023438 328.105469 484.921875 330.304688 C 486.816406 332.496094 486.582031 335.820312 484.386719 337.71875 C 463.957031 355.355469 446.167969 376.117188 431.8125 399.378906 C 417.84375 422.011719 407.097656 447.0625 400.308594 473.953125"/>
<path style=" stroke:none;fill-rule:nonzero;fill:#ad8b5b;fill-opacity:1;" d="M 658.363281 521.613281 C 663.457031 521.613281 668.070312 523.683594 671.40625 527.019531 C 674.746094 530.355469 676.8125 534.96875 676.8125 540.058594 C 676.8125 545.132812 674.746094 549.742188 671.40625 553.078125 L 671.386719 553.097656 C 668.046875 556.433594 663.4375 558.503906 658.363281 558.503906 C 653.277344 558.503906 648.664062 556.433594 645.328125 553.097656 C 641.992188 549.761719 639.921875 545.144531 639.921875 540.058594 C 639.921875 534.992188 641.992188 530.382812 645.328125 527.039062 L 645.347656 527.019531 C 648.691406 523.683594 653.300781 521.613281 658.363281 521.613281 Z M 494.855469 386.738281 L 489.558594 373.160156 C 489.1875 372.203125 488.503906 371.519531 487.546875 371.148438 L 473.96875 365.855469 C 472.578125 365.3125 471.710938 364.042969 471.710938 362.554688 C 471.710938 361.0625 472.578125 359.792969 473.96875 359.253906 L 487.546875 353.957031 C 488.503906 353.585938 489.1875 352.902344 489.558594 351.945312 L 494.855469 338.367188 C 495.394531 336.980469 496.664062 336.109375 498.15625 336.109375 C 499.644531 336.109375 500.914062 336.980469 501.453125 338.367188 L 506.75 351.945312 C 507.121094 352.902344 507.804688 353.585938 508.761719 353.957031 L 522.34375 359.253906 C 523.730469 359.792969 524.597656 361.0625 524.597656 362.554688 C 524.597656 364.042969 523.730469 365.3125 522.34375 365.855469 L 508.761719 371.148438 C 507.804688 371.519531 507.121094 372.203125 506.75 373.160156 L 501.453125 386.738281 C 500.914062 388.128906 499.644531 388.996094 498.15625 388.996094 C 496.664062 388.996094 495.394531 388.128906 494.855469 386.738281 Z M 706.359375 486.253906 C 702.464844 486.253906 699.296875 483.089844 699.296875 479.191406 C 699.296875 475.292969 702.464844 472.128906 706.359375 472.128906 C 710.261719 472.128906 713.425781 475.292969 713.425781 479.191406 C 713.425781 483.089844 710.261719 486.253906 706.359375 486.253906 Z M 730.53125 472.855469 L 727.0625 463.960938 C 726.820312 463.332031 726.371094 462.882812 725.742188 462.640625 L 716.84375 459.171875 C 715.933594 458.816406 715.363281 457.980469 715.363281 457.003906 C 715.363281 456.03125 715.933594 455.199219 716.84375 454.84375 L 725.742188 451.375 C 726.371094 451.132812 726.820312 450.683594 727.0625 450.054688 L 730.53125 441.15625 C 730.882812 440.25 731.71875 439.679688 732.695312 439.679688 C 733.667969 439.679688 734.503906 440.25 734.859375 441.15625 L 738.324219 450.054688 C 738.574219 450.683594 739.019531 451.132812 739.644531 451.375 L 748.546875 454.84375 C 749.453125 455.199219 750.023438 456.03125 750.023438 457.003906 C 750.023438 457.980469 749.453125 458.816406 748.546875 459.171875 L 739.644531 462.640625 C 739.019531 462.882812 738.574219 463.332031 738.324219 463.960938 L 734.859375 472.855469 C 734.503906 473.765625 733.667969 474.335938 732.695312 474.335938 C 731.714844 474.335938 730.882812 473.765625 730.53125 472.855469 Z M 852.539062 263.078125 L 857.835938 276.660156 C 858.207031 277.621094 858.890625 278.300781 859.84375 278.671875 L 873.425781 283.96875 C 874.8125 284.511719 875.683594 285.78125 875.683594 287.269531 C 875.683594 288.761719 874.8125 290.03125 873.425781 290.570312 L 859.84375 295.859375 C 858.890625 296.230469 858.207031 296.921875 857.835938 297.871094 L 852.539062 311.449219 C 851.996094 312.839844 850.730469 313.710938 849.238281 313.710938 C 847.746094 313.710938 846.480469 312.839844 845.9375 311.449219 L 840.644531 297.871094 C 840.269531 296.921875 839.585938 296.230469 838.632812 295.859375 L 825.050781 290.570312 C 823.664062 290.03125 822.792969 288.761719 822.792969 287.269531 C 822.792969 285.78125 823.664062 284.511719 825.050781 283.96875 L 838.632812 278.671875 C 839.585938 278.300781 840.269531 277.621094 840.644531 276.660156 L 845.9375 263.078125 C 846.480469 261.691406 847.746094 260.820312 849.238281 260.820312 C 850.730469 260.820312 851.996094 261.691406 852.539062 263.078125 Z M 813.703125 248.75 L 817.167969 257.648438 C 817.414062 258.28125 817.863281 258.730469 818.488281 258.96875 L 827.386719 262.441406 C 828.296875 262.789062 828.867188 263.628906 828.867188 264.601562 C 828.867188 265.578125 828.296875 266.410156 827.386719 266.761719 L 818.488281 270.230469 C 817.863281 270.480469 817.414062 270.921875 817.167969 271.550781 L 813.703125 280.449219 C 813.347656 281.359375 812.515625 281.929688 811.535156 281.929688 C 810.5625 281.929688 809.730469 281.359375 809.375 280.449219 L 805.90625 271.550781 C 805.660156 270.921875 805.214844 270.480469 804.585938 270.230469 L 795.6875 266.761719 C 794.777344 266.410156 794.210938 265.578125 794.210938 264.601562 C 794.210938 263.628906 794.777344 262.789062 795.6875 262.441406 L 804.585938 258.96875 C 805.214844 258.730469 805.660156 258.28125 805.90625 257.648438 L 809.375 248.75 C 809.730469 247.839844 810.5625 247.269531 811.535156 247.269531 C 812.515625 247.269531 813.347656 247.839844 813.703125 248.75 Z M 837.296875 235.679688 C 841.195312 235.679688 844.355469 238.839844 844.355469 242.738281 C 844.355469 246.640625 841.195312 249.808594 837.296875 249.808594 C 833.394531 249.808594 830.234375 246.640625 830.234375 242.738281 C 830.234375 238.839844 833.394531 235.679688 837.296875 235.679688 Z M 533.691406 401.070312 L 530.222656 392.171875 C 529.976562 391.542969 529.53125 391.09375 528.90625 390.851562 L 520.003906 387.382812 C 519.097656 387.027344 518.523438 386.191406 518.523438 385.21875 C 518.523438 384.246094 519.097656 383.410156 520.003906 383.054688 L 528.90625 379.585938 C 529.53125 379.339844 529.976562 378.894531 530.222656 378.269531 L 533.691406 369.367188 C 534.046875 368.457031 534.878906 367.886719 535.855469 367.886719 C 536.828125 367.886719 537.664062 368.457031 538.019531 369.367188 L 541.488281 378.269531 C 541.730469 378.894531 542.179688 379.339844 542.808594 379.585938 L 551.703125 383.054688 C 552.613281 383.410156 553.1875 384.246094 553.1875 385.21875 C 553.1875 386.191406 552.613281 387.027344 551.703125 387.382812 L 542.808594 390.851562 C 542.179688 391.09375 541.730469 391.542969 541.488281 392.171875 L 538.019531 401.070312 C 537.664062 401.980469 536.828125 402.550781 535.855469 402.550781 C 534.878906 402.550781 534.046875 401.980469 533.691406 401.070312 Z M 510.097656 414.136719 C 506.199219 414.136719 503.035156 410.976562 503.035156 407.074219 C 503.035156 403.175781 506.199219 400.015625 510.097656 400.015625 C 514 400.015625 517.160156 403.175781 517.160156 407.074219 C 517.160156 410.976562 514 414.136719 510.097656 414.136719 Z M 281.664062 682.058594 C 275.601562 682.058594 270.679688 677.140625 270.679688 671.074219 C 270.679688 665.007812 275.601562 660.085938 281.664062 660.085938 L 321.113281 660.085938 L 321.113281 597.425781 L 635.191406 597.425781 C 588.675781 582.019531 540.464844 572.757812 492.242188 568.070312 C 436.816406 562.691406 381.296875 563.363281 328.277344 567.710938 C 325.378906 567.9375 322.84375 565.769531 322.617188 562.867188 C 322.386719 559.972656 324.558594 557.433594 327.453125 557.207031 C 380.9375 552.820312 437.050781 552.15625 493.230469 557.609375 C 530.152344 561.195312 567.089844 567.433594 603.304688 577 C 569.972656 561.707031 535.304688 549.488281 500.195312 539.800781 C 446.234375 524.910156 391.214844 515.984375 338.316406 511.035156 C 335.429688 510.777344 333.300781 508.214844 333.558594 505.328125 C 333.816406 502.441406 336.375 500.3125 339.261719 500.574219 C 392.769531 505.578125 448.417969 514.605469 502.992188 529.664062 C 556.710938 544.484375 609.40625 565.144531 658.03125 593.535156 C 706.652344 565.144531 759.347656 544.484375 813.066406 529.664062 C 867.640625 514.605469 923.292969 505.578125 976.792969 500.574219 C 979.683594 500.3125 982.238281 502.441406 982.5 505.328125 C 982.757812 508.214844 980.628906 510.777344 977.742188 511.035156 C 924.847656 515.984375 869.824219 524.910156 815.863281 539.800781 C 780.753906 549.488281 746.089844 561.707031 712.757812 577 C 748.96875 567.433594 785.90625 561.195312 822.828125 557.609375 C 879.011719 552.15625 935.121094 552.820312 988.601562 557.207031 C 991.503906 557.433594 993.671875 559.972656 993.445312 562.867188 C 993.21875 565.769531 990.679688 567.9375 987.78125 567.710938 C 934.761719 563.363281 879.242188 562.691406 823.816406 568.070312 C 775.597656 572.757812 727.382812 582.019531 680.867188 597.425781 L 995.617188 597.425781 L 995.617188 660.191406 L 1035.070312 660.132812 C 1041.109375 660.132812 1046.011719 665.03125 1046.011719 671.074219 C 1046.011719 677.117188 1041.109375 682.015625 1035.070312 682.015625 L 682.230469 682.515625 L 681.71875 672.078125 C 681.410156 665.769531 678.675781 660.105469 674.441406 655.984375 C 670.25 651.90625 664.59375 649.339844 658.363281 649.152344 C 652.078125 649.339844 646.398438 651.835938 642.21875 655.847656 C 638.054688 659.84375 635.363281 665.363281 635.054688 671.589844 L 634.527344 682.058594 Z M 343.085938 660.085938 L 614.910156 660.085938 C 617.15625 652.320312 621.390625 645.464844 627.023438 640.058594 C 635.066406 632.34375 645.972656 627.5625 657.996094 627.269531 L 658.734375 627.269531 C 670.773438 627.5625 681.679688 632.464844 689.71875 640.28125 C 695.386719 645.796875 699.644531 652.765625 701.882812 660.605469 L 973.648438 660.21875 L 973.648438 619.398438 L 343.085938 619.398438 L 343.085938 660.085938"/>
<path style=" stroke:none;fill-rule:nonzero;fill:#1f1f3a;fill-opacity:1;" d="M 898.074219 838.984375 L 926.421875 838.984375 C 926.421875 805.300781 909.988281 784.140625 877.738281 784.140625 C 848.984375 784.140625 829.058594 804.683594 829.058594 834.054688 L 829.058594 883.765625 C 829.058594 913.34375 848.984375 933.882812 877.738281 933.882812 C 910.605469 933.882812 926.421875 914.371094 926.421875 877.398438 L 898.074219 877.398438 L 898.074219 879.246094 C 898.074219 900.402344 890.886719 906.769531 877.738281 906.769531 C 867.882812 906.769531 857.609375 901.636719 857.609375 884.585938 L 857.609375 833.234375 C 857.609375 816.597656 867.882812 811.257812 877.738281 811.257812 C 887.601562 811.257812 898.074219 815.570312 898.074219 836.933594 Z M 480.402344 987.164062 C 463.453125 987.164062 455.378906 997.980469 455.378906 1015.410156 C 455.378906 1047.210938 493.152344 1049.632812 493.152344 1074.816406 C 493.152344 1084.980469 488.957031 1090.953125 479.917969 1090.953125 C 470.878906 1090.953125 466.679688 1084.980469 466.679688 1074.816406 L 466.679688 1067.710938 L 454.898438 1067.710938 L 454.898438 1074.164062 C 454.898438 1091.277344 462.96875 1102.414062 480.242188 1102.414062 C 497.511719 1102.414062 505.742188 1091.277344 505.742188 1074.164062 C 505.742188 1042.367188 467.8125 1039.949219 467.8125 1014.605469 C 467.8125 1004.597656 471.683594 998.621094 480.722656 998.621094 C 489.765625 998.621094 493.636719 1004.597656 493.636719 1014.765625 L 493.636719 1018.476562 L 505.582031 1018.476562 L 505.582031 1015.410156 C 505.582031 998.304688 497.511719 987.164062 480.402344 987.164062 Z M 543.285156 1101.285156 L 543.285156 999.753906 L 564.105469 999.753906 L 564.105469 988.292969 L 509.871094 988.292969 L 509.871094 999.753906 L 530.695312 999.753906 L 530.695312 1101.285156 Z M 571.855469 1074.007812 C 571.855469 1091.117188 580.410156 1102.414062 597.679688 1102.414062 C 615.117188 1102.414062 623.671875 1091.117188 623.671875 1074.007812 L 623.671875 1015.574219 C 623.671875 998.304688 615.117188 987.164062 597.679688 987.164062 C 580.410156 987.164062 571.855469 998.304688 571.855469 1015.574219 Z M 584.285156 1014.929688 C 584.285156 1004.761719 588.644531 998.621094 597.679688 998.621094 C 606.886719 998.621094 611.078125 1004.761719 611.078125 1014.929688 L 611.078125 1074.652344 C 611.078125 1084.980469 606.886719 1090.953125 597.679688 1090.953125 C 588.644531 1090.953125 584.285156 1084.980469 584.285156 1074.652344 Z M 648.070312 988.292969 L 648.070312 1101.285156 L 660.664062 1101.285156 L 660.664062 1053.023438 L 669.539062 1053.023438 C 680.03125 1053.023438 686.003906 1057.058594 686.003906 1069.808594 L 686.003906 1101.285156 L 698.597656 1101.285156 L 698.597656 1070.132812 C 698.597656 1058.023438 694.722656 1049.632812 684.390625 1046.5625 C 694.074219 1043.496094 698.433594 1035.75 698.433594 1023.320312 L 698.433594 1014.121094 C 698.433594 997.335938 691.007812 988.292969 673.253906 988.292969 Z M 660.664062 1041.5625 L 660.664062 999.753906 L 672.929688 999.753906 C 682.289062 999.753906 686.003906 1005.082031 686.003906 1015.25 L 686.003906 1026.066406 C 686.003906 1038.335938 680.03125 1041.5625 670.023438 1041.5625 Z M 719.140625 988.292969 L 719.140625 1101.285156 L 731.734375 1101.285156 L 731.734375 988.292969 Z M 769.695312 1038.335938 L 769.695312 999.753906 L 803.59375 999.753906 L 803.59375 988.292969 L 757.105469 988.292969 L 757.105469 1101.285156 L 803.59375 1101.285156 L 803.59375 1089.828125 L 769.695312 1089.828125 L 769.695312 1049.632812 L 797.296875 1049.632812 L 797.296875 1038.335938 Z M 836.453125 987.164062 C 819.503906 987.164062 811.429688 997.980469 811.429688 1015.410156 C 811.429688 1047.210938 849.203125 1049.632812 849.203125 1074.816406 C 849.203125 1084.980469 845.007812 1090.953125 835.964844 1090.953125 C 826.925781 1090.953125 822.730469 1084.980469 822.730469 1074.816406 L 822.730469 1067.710938 L 810.949219 1067.710938 L 810.949219 1074.164062 C 810.949219 1091.277344 819.015625 1102.414062 836.289062 1102.414062 C 853.5625 1102.414062 861.792969 1091.277344 861.792969 1074.164062 C 861.792969 1042.367188 823.859375 1039.949219 823.859375 1014.605469 C 823.859375 1004.597656 827.734375 998.621094 836.769531 998.621094 C 845.8125 998.621094 849.6875 1004.597656 849.6875 1014.765625 L 849.6875 1018.476562 L 861.632812 1018.476562 L 861.632812 1015.410156 C 861.632812 998.304688 853.5625 987.164062 836.453125 987.164062 Z M 800.25 786.8125 L 771.902344 786.8125 L 771.902344 931.621094 L 800.25 931.621094 Z M 699.601562 857.472656 L 699.601562 882.328125 L 719.734375 882.328125 L 719.734375 884.789062 C 719.734375 900.8125 709.875 906.566406 699.398438 906.566406 C 687.074219 906.566406 679.472656 899.578125 679.472656 884.789062 L 679.472656 837.136719 C 679.472656 817.828125 687.074219 811.257812 699.808594 811.257812 C 711.722656 811.257812 719.734375 817.625 719.734375 833.027344 L 748.078125 833.027344 C 747.460938 804.273438 727.742188 784.140625 699.398438 784.140625 C 670.847656 784.140625 650.921875 804.683594 650.921875 834.261719 L 650.921875 883.765625 C 650.921875 913.34375 670.847656 933.679688 699.398438 933.679688 C 728.152344 933.679688 748.078125 913.34375 748.078125 883.765625 L 748.078125 857.472656 Z M 612.308594 931.621094 L 641.269531 931.621094 L 599.367188 786.8125 L 568.351562 786.8125 L 525.832031 931.621094 L 554.589844 931.621094 L 562.601562 903.070312 L 604.707031 903.070312 Z M 583.960938 821.941406 L 598.75 878.628906 L 568.554688 878.628906 Z M 441 904.507812 L 460.308594 904.507812 L 482.90625 850.078125 L 482.90625 931.621094 L 511.246094 931.621094 L 511.246094 786.8125 L 483.105469 786.8125 L 450.859375 867.125 L 418.40625 786.8125 L 390.265625 786.8125 L 390.265625 931.621094 L 418.609375 931.621094 L 418.609375 850.488281 Z"/>
</g>
</svg>
